P1
32 16
11001100110011001100110011001100
11001100110011001100110011001100
00110011001100110011001100110011
00110011001100110011001100110011
11001100110011001100110011001100
11001100110011001100110011001100
00110011001100110011001100110011
00110011001100110011001100110011
11001100110011001100110011001100
11001100110011001100110011001100
00110011001100110011001100110011
00110011001100110011001100110011
11001100110011001100110011001100
11001100110011001100110011001100
00110011001100110011001100110011
00110011001100110011001100110011
