P1
12 12
000000000000
000001100000
000011110000
000111111000
000101101000
000111111000
001111111100
001111111100
000010010000
000100001000
000010010000
000000000000
