P1
12 12
000000000000
000011110000
001111111100
011001100110
011001100110
011111111110
011111111110
010010010010
010000000010
001000000100
000000000000
000000000000
