P1
12 12
000000000000
001000000100
000101101000
001111111100
010001100010
011111111110
011111111110
010111111010
010100001010
000100001000
000110011000
000000000000
