P1
32 16
00000000000000000000000000000000
00000000000000011000000000000000
00000000000000111100000000000000
00000000000000111100000000000000
00000000000000111100000000000000
00000000000000111100000000000000
00000000000000111100000000000000
00000000000000111100000000000000
00000000000000111100000000000000
00000111111111111111111111100000
00011111111111111111111111111000
00011111111111111111111111111000
00011111111111111111111111111000
00011111111111111111111111111000
00011111111111111111111111111000
00011111111111111111111111111000
